<svg width="28" height="28" viewBox="0 0 28 28" fill="none" xmlns="http://www.w3.org/2000/svg">
<g clip-path="url(#clip0_208_974)">
<path d="M26 0H2C0.89543 0 0 0.89543 0 2V26C0 27.1046 0.89543 28 2 28H26C27.1046 28 28 27.1046 28 26V2C28 0.89543 27.1046 0 26 0Z" fill="#E9DA79"/>
<path d="M5 5H23V23H5V5ZM21.525 18.707C21.394 17.886 20.859 17.196 19.273 16.552C18.721 16.293 18.108 16.114 17.924 15.698C17.856 15.45 17.846 15.316 17.89 15.169C18.003 14.685 18.577 14.54 19.027 14.674C19.32 14.764 19.59 14.989 19.759 15.35C20.534 14.843 20.534 14.843 21.075 14.506C20.872 14.192 20.771 14.055 20.636 13.92C20.163 13.392 19.533 13.122 18.51 13.145L17.982 13.212C17.475 13.336 16.991 13.607 16.699 13.966C15.844 14.934 16.091 16.621 17.126 17.32C18.149 18.085 19.647 18.253 19.838 18.973C20.018 19.851 19.186 20.132 18.363 20.031C17.756 19.895 17.418 19.592 17.047 19.029L15.675 19.817C15.832 20.176 16.012 20.334 16.282 20.649C17.587 21.965 20.85 21.898 21.435 19.895C21.456 19.828 21.615 19.367 21.491 18.658L21.525 18.707ZM14.788 13.273H13.102C13.102 14.726 13.095 16.171 13.095 17.627C13.095 18.551 13.142 19.399 12.991 19.66C12.744 20.177 12.105 20.111 11.816 20.019C11.519 19.873 11.368 19.67 11.193 19.378C11.146 19.3 11.111 19.232 11.098 19.232L9.73 20.076C9.959 20.549 10.293 20.955 10.724 21.213C11.365 21.596 12.226 21.72 13.128 21.518C13.716 21.348 14.223 20.999 14.486 20.459C14.87 19.762 14.788 18.906 14.785 17.95C14.793 16.409 14.785 14.867 14.785 13.315L14.788 13.273Z" fill="#011221"/>
</g>
<defs>
<clipPath id="clip0_208_974">
<rect width="28" height="28" fill="white"/>
</clipPath>
</defs>
</svg>
