<svg width="28" height="28" viewBox="0 0 28 28" fill="none" xmlns="http://www.w3.org/2000/svg">
<g clip-path="url(#clip0_208_974)">
<path d="M26 0H2C0.89543 0 0 0.89543 0 2V26C0 27.1046 0.89543 28 2 28H26C27.1046 28 28 27.1046 28 26V2C28 0.89543 27.1046 0 26 0Z" fill="#38BDF8"/>
<path d="M9.75 11.5951C10.3832 9.0553 11.9668 7.78516 14.5 7.78516C18.3 7.78516 18.775 10.6426 20.675 11.1188C21.9418 11.4365 23.05 10.9602 24 9.69009C23.3668 12.2299 21.7832 13.5 19.25 13.5C15.45 13.5 14.975 10.6426 13.075 10.1664C11.8082 9.8487 10.7 10.3249 9.75 11.5951ZM5 17.3099C5.63316 14.7701 7.21684 13.5 9.75 13.5C13.55 13.5 14.025 16.3574 15.925 16.8336C17.1918 17.1513 18.3 16.6751 19.25 15.4049C18.6168 17.9447 17.0332 19.2148 14.5 19.2148C10.7 19.2148 10.225 16.3574 8.325 15.8812C7.05816 15.5635 5.95 16.0398 5 17.3099Z" fill="#011221"/>
</g>
<defs>
<clipPath id="clip0_208_974">
<rect width="28" height="28" fill="white"/>
</clipPath>
</defs>
</svg>
